<svg width="196" height="48" viewBox="0 0 196 48" fill="none" xmlns="http://www.w3.org/2000/svg">
<path fill-rule="evenodd" clip-rule="evenodd" d="M48.1572 24C48.1572 37.2548 37.3769 48 24.0786 48C10.7804 48 0 37.2548 0 24C0 10.7452 10.7804 0 24.0786 0C37.3769 0 48.1572 10.7452 48.1572 24ZM33.6618 43.1904C30.7764 44.6247 27.522 45.4314 24.0786 45.4314C19.925 45.4314 16.0465 44.2575 12.7588 42.2244L14.8176 38.0468C14.8176 38.0468 15.0592 37.485 15.0592 36.9231L15.0898 22.0245C16.6881 21.4367 17.8278 19.9047 17.8278 18.1074C17.8278 15.8022 15.953 13.9335 13.6403 13.9335C11.3275 13.9335 9.45267 15.8022 9.45267 18.1074C9.45267 19.9645 10.6695 21.5383 12.3518 22.08L12.3212 36.1204C12.3212 36.1204 12.3484 36.6108 12.3212 36.9231C12.2511 37.7258 12.0796 38.0468 12.0796 38.0468L10.6895 40.7702C5.74556 36.8436 2.57698 30.7906 2.57698 24C2.57698 12.1637 12.2036 2.56856 24.0786 2.56856C24.4515 2.56856 24.8222 2.57802 25.1905 2.59672L22.3875 9.07024C22.3875 9.07024 22.1459 9.63211 22.1459 10.194L22.307 27.5873C20.7086 28.1751 19.5689 29.7071 19.5689 31.5044C19.5689 33.8096 21.4438 35.6783 23.7565 35.6783C26.0692 35.6783 27.9441 33.8096 27.9441 31.5044C27.9441 29.6473 26.7273 28.0735 25.045 27.5318L24.8839 10.9967C24.8839 10.9967 24.8567 10.5063 24.8839 10.194C24.954 9.39131 25.1255 9.07024 25.1255 9.07024L28.1021 2.94314C38.0541 4.82083 45.5803 13.5344 45.5803 24C45.5803 31.2678 41.9507 37.6906 36.3998 41.566V39.9732L36.2693 22.0245C37.8677 21.4367 39.0074 19.9047 39.0074 18.1074C39.0074 15.8022 37.1325 13.9335 34.8198 13.9335C32.507 13.9335 30.6322 15.8022 30.6322 18.1074C30.6322 19.9645 31.849 21.5383 33.5313 22.08L33.6618 39.1706V43.1904ZM21.8238 31.5044C21.8238 30.4404 22.6891 29.578 23.7565 29.578C24.8239 29.578 25.6892 30.4404 25.6892 31.5044C25.6892 32.5683 24.8239 33.4308 23.7565 33.4308C22.6891 33.4308 21.8238 32.5683 21.8238 31.5044ZM15.573 18.1074C15.573 19.1713 14.7077 20.0338 13.6403 20.0338C12.5728 20.0338 11.7075 19.1713 11.7075 18.1074C11.7075 17.0435 12.5728 16.181 13.6403 16.181C14.7077 16.181 15.573 17.0435 15.573 18.1074ZM34.8198 20.0338C35.8872 20.0338 36.7525 19.1713 36.7525 18.1074C36.7525 17.0435 35.8872 16.181 34.8198 16.181C33.7524 16.181 32.8871 17.0435 32.8871 18.1074C32.8871 19.1713 33.7524 20.0338 34.8198 20.0338Z" fill="#130F40"/>
<path d="M75.9063 15.4102C73.6093 15.4102 72.121 16.2484 71.2151 17.5379C70.3093 16.1839 68.8857 15.4102 66.9769 15.4102C64.8093 15.4102 63.3857 16.2484 62.6416 17.3445V15.8615H57.7887V31.9809H62.6416V22.8896C62.6416 20.9875 63.5475 19.8591 65.1652 19.8591C66.7181 19.8591 67.4946 20.8907 67.4946 22.5027V31.9809H72.3475V22.8896C72.3475 20.9875 73.2534 19.8591 74.871 19.8591C76.424 19.8591 77.2004 20.8907 77.2004 22.5027V31.9809H82.0534V22.0836C82.0534 18.0537 79.6269 15.4102 75.9063 15.4102Z" fill="#130F40"/>
<path d="M87.7973 14.443C89.3826 14.443 90.709 13.1212 90.709 11.5415C90.709 9.96179 89.3826 8.64 87.7973 8.64C86.212 8.64 84.8855 9.96179 84.8855 11.5415C84.8855 13.1212 86.212 14.443 87.7973 14.443ZM85.3708 31.9809H90.2237V23.9212V15.8615H85.3708V31.9809Z" fill="#130F40"/>
<path d="M101.54 32.4322C104.71 32.4322 107.46 30.7881 108.851 28.2734L104.613 25.8555C104.096 26.9839 102.898 27.6609 101.475 27.6609C99.372 27.6609 97.8191 26.1457 97.8191 23.9212C97.8191 21.6967 99.372 20.1815 101.475 20.1815C102.898 20.1815 104.063 20.8585 104.613 21.9869L108.851 19.5367C107.46 17.0543 104.678 15.4102 101.54 15.4102C96.622 15.4102 92.9661 19.1176 92.9661 23.9212C92.9661 28.7248 96.622 32.4322 101.54 32.4322Z" fill="#130F40"/>
<path d="M115.815 18.7307V15.8615H110.962V31.9809H115.815V24.6949C115.815 21.5033 118.662 20.6973 120.668 21.0197V15.5391C118.63 15.5391 116.462 16.5707 115.815 18.7307Z" fill="#130F40"/>
<path d="M130.228 32.4322C134.983 32.4322 138.801 28.7248 138.801 23.9212C138.801 19.1176 134.983 15.4102 130.228 15.4102C125.472 15.4102 121.654 19.1176 121.654 23.9212C121.654 28.7248 125.472 32.4322 130.228 32.4322ZM130.228 27.7254C128.125 27.7254 126.507 26.2101 126.507 23.9212C126.507 21.6322 128.125 20.117 130.228 20.117C132.331 20.117 133.948 21.6322 133.948 23.9212C133.948 26.2101 132.331 27.7254 130.228 27.7254Z" fill="#130F40"/>
<path d="M153.42 15.8615V17.5057C152.352 16.1839 150.799 15.4102 148.696 15.4102C144.102 15.4102 140.737 19.1499 140.737 23.5988C140.737 28.0478 144.102 31.7875 148.696 31.7875C150.799 31.7875 152.352 31.0137 153.42 29.6919V31.1749C153.42 33.4639 152.028 34.6245 149.764 34.6245C147.628 34.6245 146.69 33.7218 146.075 32.5934L141.934 34.9791C143.423 37.6227 146.237 38.88 149.602 38.88C153.905 38.88 158.143 36.591 158.143 31.1749V15.8615H153.42ZM149.505 27.3385C147.208 27.3385 145.59 25.8233 145.59 23.5988C145.59 21.3743 147.208 19.8591 149.505 19.8591C151.802 19.8591 153.42 21.3743 153.42 23.5988C153.42 25.8233 151.802 27.3385 149.505 27.3385Z" fill="#130F40"/>
<path d="M166.039 25.8555H177.524C177.653 25.243 177.718 24.5982 177.718 23.9212C177.718 19.0531 174.224 15.4102 169.5 15.4102C164.389 15.4102 160.895 19.1176 160.895 23.9212C160.895 28.7248 164.324 32.4322 169.856 32.4322C172.93 32.4322 175.324 31.3039 176.909 29.1116L173.027 26.8872C172.38 27.5964 171.248 28.1122 169.921 28.1122C168.142 28.1122 166.653 27.5319 166.039 25.8555ZM165.942 22.2448C166.395 20.6006 167.624 19.6979 169.468 19.6979C170.924 19.6979 172.38 20.3749 172.897 22.2448H165.942Z" fill="#130F40"/>
<path d="M189.95 15.4102C187.815 15.4102 186.197 16.1839 185.324 17.3767V15.8615H180.471V31.9809H185.324V23.1797C185.324 20.8907 186.553 19.8591 188.332 19.8591C189.885 19.8591 191.147 20.794 191.147 22.7928V31.9809H196V22.0836C196 17.7313 193.218 15.4102 189.95 15.4102Z" fill="#130F40"/>
</svg>
